<svg viewBox="0 0 96 96" xmlns="http://www.w3.org/2000/svg" xmlns:xlink="http://www.w3.org/1999/xlink" id="Icons_TrafficLight" overflow="hidden"><path d="M28 18 14.46 18C14.46 18 14.91 24.32 19.46 26.12 20.96 26.72 21.26 28.51 21.3 29.64 21.3 29.82 21.3 30.64 21.3 30.64 21.5884 33.3863 24.0485 35.3789 26.7948 35.0905 27.2066 35.0473 27.6114 34.953 28 34.81Z" fill="#0070C0"/><path d="M28 38 14.46 38C14.46 38 14.91 44.32 19.46 46.12 20.96 46.72 21.26 48.51 21.3 49.64 21.3 49.82 21.3 50.64 21.3 50.64 21.5884 53.3863 24.0485 55.3789 26.7948 55.0905 27.2066 55.0473 27.6114 54.953 28 54.81Z" fill="#0070C0"/><path d="M28 59 14.46 59C14.46 59 14.91 65.32 19.46 67.12 20.96 67.72 21.26 69.51 21.3 70.64 21.3 70.82 21.3 71.64 21.3 71.64 21.5884 74.3863 24.0485 76.3789 26.7948 76.0905 27.2066 76.0473 27.6114 75.953 28 75.81Z" fill="#0070C0"/><path d="M68 18 81.54 18C81.54 18 81.09 24.32 76.54 26.12 75.04 26.72 74.74 28.51 74.7 29.64 74.7 29.82 74.7 30.64 74.7 30.64 74.4116 33.3863 71.9515 35.3789 69.2052 35.0905 68.7934 35.0473 68.3886 34.953 68 34.81Z" fill="#0070C0"/><path d="M68 38 81.54 38C81.54 38 81.09 44.32 76.54 46.12 75.04 46.72 74.74 48.51 74.7 49.64 74.7 49.82 74.7 50.64 74.7 50.64 74.4116 53.3863 71.9515 55.3789 69.2052 55.0905 68.7934 55.0473 68.3886 54.953 68 54.81Z" fill="#0070C0"/><path d="M68 59 81.54 59C81.54 59 81.09 65.32 76.54 67.12 75.04 67.72 74.74 69.51 74.7 70.64 74.7 70.82 74.7 71.64 74.7 71.64 74.4116 74.3863 71.9515 76.3789 69.2052 76.0905 68.7934 76.0473 68.3886 75.953 68 75.81Z" fill="#0070C0"/><path d="M61 12 35 12C32.7909 12 31 13.7909 31 16L31 80C31 82.2091 32.7909 84 35 84L61 84C63.2091 84 65 82.2091 65 80L65 16C65 13.7909 63.2091 12 61 12ZM48 79C43.0294 79 39 74.9706 39 70 39 65.0294 43.0294 61 48 61 52.9706 61 57 65.0294 57 70 57 74.9706 52.9706 79 48 79ZM48 57C43.0294 57 39 52.9706 39 48 39 43.0294 43.0294 39 48 39 52.9706 39 57 43.0294 57 48 57 52.9706 52.9706 57 48 57ZM48 35C43.0294 35 39 30.9706 39 26 39 21.0294 43.0294 17 48 17 52.9706 17 57 21.0294 57 26 57 30.9706 52.9706 35 48 35Z" fill="#0070C0"/></svg>